<?xml version="1.0" encoding="UTF-8"?>
<!DOCTYPE svg PUBLIC "-//W3C//DTD SVG 1.1//EN" "http://www.w3.org/Graphics/SVG/1.1/DTD/svg11.dtd">
<svg xmlns="http://www.w3.org/2000/svg" version="1.1" width="1024px" height="1024px" style="shape-rendering:geometricPrecision; text-rendering:geometricPrecision; image-rendering:optimizeQuality; fill-rule:evenodd; clip-rule:evenodd" xmlns:xlink="http://www.w3.org/1999/xlink">
<g><path style="opacity:1" fill="#fcfcfc" d="M -0.5,-0.5 C 340.833,-0.5 682.167,-0.5 1023.5,-0.5C 1023.5,340.833 1023.5,682.167 1023.5,1023.5C 682.167,1023.5 340.833,1023.5 -0.5,1023.5C -0.5,682.167 -0.5,340.833 -0.5,-0.5 Z"/></g>
<g><path style="opacity:1" fill="#0b0c10" d="M 729.5,470.5 C 729.5,475.833 729.5,481.167 729.5,486.5C 713.991,486.17 698.658,486.504 683.5,487.5C 674.167,487.5 664.833,487.5 655.5,487.5C 655.096,481.71 655.596,476.044 657,470.5C 672.044,448.912 687.21,427.412 702.5,406C 687.17,405.5 671.837,405.333 656.5,405.5C 656.5,399.5 656.5,393.5 656.5,387.5C 680.167,387.5 703.833,387.5 727.5,387.5C 727.666,393.176 727.499,398.843 727,404.5C 711.639,425.694 696.473,447.028 681.5,468.5C 697.662,469.167 713.662,469.833 729.5,470.5 Z"/></g>
<g><path style="opacity:1" fill="#fe0122" d="M 146.5,391.5 C 202.168,391.333 257.834,391.5 313.5,392C 315.866,392.44 318.199,392.94 320.5,393.5C 320.083,394.124 319.416,394.457 318.5,394.5C 315.855,393.892 313.188,393.392 310.5,393C 255.665,392.833 200.998,392.333 146.5,391.5 Z"/></g>
<g><path style="opacity:1" fill="#0b0d11" d="M 530.5,412.5 C 559.382,412.891 572.716,427.558 570.5,456.5C 553.487,456.167 536.487,456.501 519.5,457.5C 522.421,472.463 531.088,477.296 545.5,472C 548.242,470.114 549.909,467.614 550.5,464.5C 556.842,464.334 563.175,464.5 569.5,465C 560.591,486.32 544.925,493.653 522.5,487C 506.983,479.645 499.649,467.311 500.5,450C 500.675,429.422 510.675,416.922 530.5,412.5 Z"/></g>
<g><path style="opacity:1" fill="#0e1013" d="M 614.5,412.5 C 631.778,410.373 642.278,417.706 646,434.5C 646.5,452.497 646.667,470.497 646.5,488.5C 639.91,488.811 633.41,488.478 627,487.5C 626.667,470.5 626.333,453.5 626,436.5C 623.793,431.481 619.96,429.147 614.5,429.5C 607.9,429.381 603.4,432.381 601,438.5C 599.56,454.776 599.06,471.11 599.5,487.5C 593.167,487.5 586.833,487.5 580.5,487.5C 579.992,463.17 579.659,438.836 579.5,414.5C 586.167,414.5 592.833,414.5 599.5,414.5C 599.336,417.187 599.503,419.854 600,422.5C 604.012,417.762 608.845,414.429 614.5,412.5 Z"/></g>
<g><path style="opacity:1" fill="#f9f9fa" d="M 530.5,427.5 C 543.028,425.903 550.028,431.236 551.5,443.5C 540.813,443.832 530.146,443.499 519.5,442.5C 520.56,435.459 524.227,430.459 530.5,427.5 Z"/></g>
<g><path style="opacity:1" fill="#0c0d11" d="M 436.5,386.5 C 458.196,383.106 475.03,390.44 487,408.5C 488.452,411.737 489.619,415.07 490.5,418.5C 483.858,419.664 477.192,419.831 470.5,419C 465.529,407.009 456.529,402.009 443.5,404C 429.014,407.436 420.848,416.602 419,431.5C 417.145,445.284 421.312,456.784 431.5,466C 441.672,471.567 452.006,471.901 462.5,467C 468.29,462.586 471.29,456.753 471.5,449.5C 462.833,449.5 454.167,449.5 445.5,449.5C 445.5,444.5 445.5,439.5 445.5,434.5C 460.833,434.5 476.167,434.5 491.5,434.5C 495.242,467.399 480.742,485.399 448,488.5C 425.012,488.502 409.345,477.835 401,456.5C 394.144,433.074 399.31,412.908 416.5,396C 422.601,391.448 429.268,388.281 436.5,386.5 Z"/></g>
<g><path style="opacity:1" fill="#555658" d="M 729.5,470.5 C 730.489,475.975 730.822,481.642 730.5,487.5C 714.833,487.5 699.167,487.5 683.5,487.5C 698.658,486.504 713.991,486.17 729.5,486.5C 729.5,481.167 729.5,475.833 729.5,470.5 Z"/></g>
<g><path style="opacity:1" fill="#fe2b5c" d="M 146.5,391.5 C 200.998,392.333 255.665,392.833 310.5,393C 313.188,393.392 315.855,393.892 318.5,394.5C 319.416,394.457 320.083,394.124 320.5,393.5C 336.077,399.739 345.41,411.072 348.5,427.5C 347.167,482.833 347.167,538.167 348.5,593.5C 344.062,612.271 332.395,623.605 313.5,627.5C 256.817,626.823 199.984,626.157 143,625.5C 141.93,625.528 141.097,625.861 140.5,626.5C 123.775,621.086 113.442,609.753 109.5,592.5C 110.833,537.5 110.833,482.5 109.5,427.5C 113.325,406.754 125.658,394.754 146.5,391.5 Z"/></g>
<g><path style="opacity:1" fill="#fcfbfc" d="M 270.5,532.5 C 270.5,531.167 270.5,529.833 270.5,528.5C 258.678,527.505 246.678,527.172 234.5,527.5C 234.5,518.833 234.5,510.167 234.5,501.5C 257.167,501.5 279.833,501.5 302.5,501.5C 302.5,530.5 302.5,559.5 302.5,588.5C 294.5,588.5 286.5,588.5 278.5,588.5C 278.666,582.491 278.499,576.491 278,570.5C 269.205,581.596 257.705,588.096 243.5,590C 193.329,594.794 163.496,572.627 154,523.5C 150.673,491.77 161.507,466.27 186.5,447C 205.812,436.005 226.478,432.339 248.5,436C 264.185,438.179 278.185,444.179 290.5,454C 292.329,455.113 293.163,456.613 293,458.5C 285.958,465.374 279.125,472.374 272.5,479.5C 263.541,471.687 253.207,466.52 241.5,464C 211.911,461.918 194.078,475.418 188,504.5C 184.677,526.444 191.844,543.944 209.5,557C 224.845,564.332 240.179,564.332 255.5,557C 263.924,550.995 268.924,542.829 270.5,532.5 Z"/></g>
<g><path style="opacity:1" fill="#0d0e11" d="M 503.5,515.5 C 511.788,514.622 516.788,518.122 518.5,526C 517.496,532.695 513.496,535.862 506.5,535.5C 497.484,534.983 493.984,530.316 496,521.5C 498.109,518.878 500.609,516.878 503.5,515.5 Z"/></g>
<g><path style="opacity:1" fill="#0f1013" d="M 835.5,517.5 C 841.5,517.5 847.5,517.5 853.5,517.5C 853.333,528.838 853.5,540.172 854,551.5C 861.869,544.573 871.036,542.073 881.5,544C 891.639,546.136 898.806,551.969 903,561.5C 907.949,575.31 907.616,588.977 902,602.5C 891.99,618.392 878.157,622.892 860.5,616C 858.04,614.542 855.873,612.709 854,610.5C 853.503,613.146 853.336,615.813 853.5,618.5C 847.167,618.5 840.833,618.5 834.5,618.5C 834.174,584.76 834.507,551.094 835.5,517.5 Z"/></g>
<g><path style="opacity:1" fill="#0c0d11" d="M 400.5,518.5 C 407.5,518.5 414.5,518.5 421.5,518.5C 421.5,531.833 421.5,545.167 421.5,558.5C 435.5,558.5 449.5,558.5 463.5,558.5C 463.5,545.167 463.5,531.833 463.5,518.5C 470.167,518.5 476.833,518.5 483.5,518.5C 483.5,551.5 483.5,584.5 483.5,617.5C 476.833,617.5 470.167,617.5 463.5,617.5C 463.5,603.5 463.5,589.5 463.5,575.5C 449.5,575.5 435.5,575.5 421.5,575.5C 421.5,589.5 421.5,603.5 421.5,617.5C 414.833,617.5 408.167,617.5 401.5,617.5C 401.452,584.496 401.119,551.496 400.5,518.5 Z"/></g>
<g><path style="opacity:1" fill="#0b0d10" d="M 659.5,518.5 C 666.5,518.5 673.5,518.5 680.5,518.5C 680.5,532.167 680.5,545.833 680.5,559.5C 694.5,559.5 708.5,559.5 722.5,559.5C 722.5,545.833 722.5,532.167 722.5,518.5C 729.167,518.5 735.833,518.5 742.5,518.5C 742.5,551.5 742.5,584.5 742.5,617.5C 735.833,617.5 729.167,617.5 722.5,617.5C 722.5,603.5 722.5,589.5 722.5,575.5C 708.5,575.5 694.5,575.5 680.5,575.5C 680.5,589.5 680.5,603.5 680.5,617.5C 673.833,617.5 667.167,617.5 660.5,617.5C 660.452,584.496 660.119,551.496 659.5,518.5 Z"/></g>
<g><path style="opacity:1" fill="#fe0438" d="M 270.5,528.5 C 270.5,529.833 270.5,531.167 270.5,532.5C 269.596,531.791 269.263,530.791 269.5,529.5C 258.162,529.667 246.828,529.5 235.5,529C 247.162,528.5 258.829,528.333 270.5,528.5 Z"/></g>
<g><path style="opacity:1" fill="#0b0d10" d="M 608.5,543.5 C 636.26,544.264 649.594,558.597 648.5,586.5C 631.5,586.5 614.5,586.5 597.5,586.5C 599.521,602.68 608.188,607.847 623.5,602C 625.741,600.261 627.408,598.094 628.5,595.5C 634.463,594.504 640.463,594.171 646.5,594.5C 642.176,611.475 631.176,619.809 613.5,619.5C 593.46,618.63 581.626,608.296 578,588.5C 574.85,564.06 585.016,549.06 608.5,543.5 Z"/></g>
<g><path style="opacity:1" fill="#090b0f" d="M 497.5,544.5 C 503.833,544.5 510.167,544.5 516.5,544.5C 516.5,568.833 516.5,593.167 516.5,617.5C 510.167,617.5 503.833,617.5 497.5,617.5C 497.5,593.167 497.5,568.833 497.5,544.5 Z"/></g>
<g><path style="opacity:1" fill="#0d0f12" d="M 562.5,543.5 C 566.833,543.5 571.167,543.5 575.5,543.5C 575.5,549.833 575.5,556.167 575.5,562.5C 569.45,561.004 563.45,561.171 557.5,563C 554.567,565.264 552.4,568.098 551,571.5C 549.548,586.762 549.048,602.095 549.5,617.5C 542.833,617.5 536.167,617.5 529.5,617.5C 529.5,593.167 529.5,568.833 529.5,544.5C 536.167,544.5 542.833,544.5 549.5,544.5C 549.335,547.85 549.502,551.183 550,554.5C 552.505,548.822 556.671,545.155 562.5,543.5 Z"/></g>
<g><path style="opacity:1" fill="#0b0c10" d="M 756.5,544.5 C 762.833,544.5 769.167,544.5 775.5,544.5C 775.333,560.837 775.5,577.17 776,593.5C 780.097,603.091 786.93,605.591 796.5,601C 799.467,598.9 801.3,596.066 802,592.5C 803.422,576.549 803.922,560.549 803.5,544.5C 809.833,544.5 816.167,544.5 822.5,544.5C 822.5,569.167 822.5,593.833 822.5,618.5C 816.167,618.5 809.833,618.5 803.5,618.5C 803.665,615.482 803.498,612.482 803,609.5C 794.483,619.256 783.983,622.089 771.5,618C 763.965,614.443 759.132,608.61 757,600.5C 756.5,581.836 756.333,563.17 756.5,544.5 Z"/></g>
<g><path style="opacity:1" fill="#fe174d" d="M 348.5,427.5 C 349.829,482.84 349.829,538.173 348.5,593.5C 347.167,538.167 347.167,482.833 348.5,427.5 Z"/></g>
<g><path style="opacity:1" fill="#f9f9f9" d="M 610.5,557.5 C 621.255,557.592 627.255,562.926 628.5,573.5C 618.161,573.666 607.828,573.5 597.5,573C 598.448,564.893 602.782,559.726 610.5,557.5 Z"/></g>
<g><path style="opacity:1" fill="#ff1b4c" d="M 109.5,427.5 C 110.833,482.5 110.833,537.5 109.5,592.5C 108.167,537.5 108.167,482.5 109.5,427.5 Z"/></g>
<g><path style="opacity:1" fill="#fafafa" d="M 865.5,559.5 C 877.65,558.151 884.817,563.484 887,575.5C 888.601,585.273 886.101,593.773 879.5,601C 866.594,606.596 858.094,602.763 854,589.5C 852.509,581.007 853.843,573.007 858,565.5C 860.114,562.879 862.614,560.879 865.5,559.5 Z"/></g>
<g><path style="opacity:1" fill="#ff2249" d="M 140.5,626.5 C 141.097,625.861 141.93,625.528 143,625.5C 199.984,626.157 256.817,626.823 313.5,627.5C 258.851,628.646 204.185,628.812 149.5,628C 146.456,627.637 143.456,627.137 140.5,626.5 Z"/></g>
</svg>
